{
 "cells": [
  {
   "cell_type": "code",
   "execution_count": 81,
   "id": "02413f35",
   "metadata": {},
   "outputs": [],
   "source": [
    "import numpy as np\n",
    "import pandas as pd\n",
    "import cv2\n",
    "import os\n",
    "import subprocess\n",
    "from pathlib import Path"
   ]
  },
  {
   "cell_type": "code",
   "execution_count": 5,
   "id": "635ff227",
   "metadata": {},
   "outputs": [
    {
     "data": {
      "application/vnd.microsoft.datawrangler.viewer.v0+json": {
       "columns": [
        {
         "name": "index",
         "rawType": "int64",
         "type": "integer"
        },
        {
         "name": "video_file_name",
         "rawType": "object",
         "type": "string"
        },
        {
         "name": "label",
         "rawType": "object",
         "type": "string"
        },
        {
         "name": "hate_snippet",
         "rawType": "object",
         "type": "unknown"
        },
        {
         "name": "target",
         "rawType": "object",
         "type": "unknown"
        }
       ],
       "conversionMethod": "pd.DataFrame",
       "ref": "2219f0c8-5ff2-41d5-8815-4db7de9cbb4d",
       "rows": [
        [
         "0",
         "hate_video_1.mp4",
         "Hate",
         "[['00:00:34', '00:01:34']]",
         "Blacks"
        ],
        [
         "1",
         "hate_video_2.mp4",
         "Hate",
         "[['00:00:06', '00:02:06']]",
         "Blacks"
        ],
        [
         "2",
         "non_hate_video_1.mp4",
         "Non Hate",
         null,
         "Others"
        ],
        [
         "3",
         "hate_video_3.mp4",
         "Hate",
         "[['00:00:03', '00:01:40'], ['00:01:41', '00:03:27']]",
         "Blacks"
        ],
        [
         "4",
         "non_hate_video_2.mp4",
         "Non Hate",
         null,
         "Blacks"
        ],
        [
         "5",
         "hate_video_4.mp4",
         "Hate",
         "[['00:00:00', '00:00:13']]",
         "Jews"
        ],
        [
         "6",
         "non_hate_video_3.mp4",
         "Non Hate",
         null,
         "Blacks"
        ],
        [
         "7",
         "non_hate_video_4.mp4",
         "Non Hate",
         null,
         "Blacks"
        ],
        [
         "8",
         "hate_video_5.mp4",
         "Hate",
         "[['00:00:00', '00:00:39']]",
         "Blacks"
        ],
        [
         "9",
         "non_hate_video_5.mp4",
         "Non Hate",
         null,
         "Others"
        ],
        [
         "10",
         "hate_video_6.mp4",
         "Hate",
         "[['00:00:00', '00:01:13']]",
         "Blacks"
        ],
        [
         "11",
         "hate_video_7.mp4",
         "Hate",
         "[['00:00:00', '00:00:26']]",
         "Blacks"
        ],
        [
         "12",
         "non_hate_video_6.mp4",
         "Non Hate",
         null,
         "Blacks"
        ],
        [
         "13",
         "non_hate_video_7.mp4",
         "Non Hate",
         null,
         "Blacks"
        ],
        [
         "14",
         "hate_video_8.mp4",
         "Hate",
         "[['00:00:00', '00:00:57']]",
         "Blacks"
        ],
        [
         "15",
         "hate_video_9.mp4",
         "Hate",
         "[['00:00:07', '00:02:24']]",
         "Blacks"
        ],
        [
         "16",
         "non_hate_video_8.mp4",
         "Non Hate",
         null,
         "Others"
        ],
        [
         "17",
         "non_hate_video_9.mp4",
         "Non Hate",
         null,
         "Others"
        ],
        [
         "18",
         "hate_video_10.mp4",
         "Hate",
         "[['00:00:00', '00:00:38']]",
         "Blacks"
        ],
        [
         "19",
         "hate_video_11.mp4",
         "Hate",
         "[['00:00:00', '00:00:32']]",
         "Blacks"
        ],
        [
         "20",
         "non_hate_video_10.mp4",
         "Non Hate",
         null,
         "Blacks"
        ],
        [
         "21",
         "hate_video_12.mp4",
         "Hate",
         "[['00:00:17', '00:01:17']]",
         "Blacks"
        ],
        [
         "22",
         "non_hate_video_11.mp4",
         "Non Hate",
         null,
         "Blacks"
        ],
        [
         "23",
         "non_hate_video_12.mp4",
         "Non Hate",
         null,
         "Others"
        ],
        [
         "24",
         "non_hate_video_13.mp4",
         "Non Hate",
         null,
         "Others"
        ],
        [
         "25",
         "non_hate_video_14.mp4",
         "Non Hate",
         null,
         "Blacks"
        ],
        [
         "26",
         "non_hate_video_15.mp4",
         "Non Hate",
         null,
         "Blacks"
        ],
        [
         "27",
         "hate_video_13.mp4",
         "Hate",
         "[['00:00:00', '00:03:05']]",
         "Blacks"
        ],
        [
         "28",
         "non_hate_video_16.mp4",
         "Non Hate",
         null,
         "Blacks"
        ],
        [
         "29",
         "non_hate_video_17.mp4",
         "Non Hate",
         null,
         "Others"
        ],
        [
         "30",
         "non_hate_video_18.mp4",
         "Non Hate",
         null,
         "Blacks"
        ],
        [
         "31",
         "hate_video_14.mp4",
         "Hate",
         "[['00:00:45', '00:02:40']]",
         "Blacks"
        ],
        [
         "32",
         "non_hate_video_19.mp4",
         "Non Hate",
         null,
         "Others"
        ],
        [
         "33",
         "hate_video_15.mp4",
         "Hate",
         "[['00:00:07', '00:00:47']]",
         "Whites"
        ],
        [
         "34",
         "non_hate_video_20.mp4",
         "Non Hate",
         null,
         "Blacks"
        ],
        [
         "35",
         "hate_video_16.mp4",
         "Hate",
         "[['00:01:06', '00:01:53']]",
         "Blacks"
        ],
        [
         "36",
         "hate_video_17.mp4",
         "Hate",
         "[['00:00:01', '00:00:03']]",
         "Blacks"
        ],
        [
         "37",
         "non_hate_video_21.mp4",
         "Non Hate",
         null,
         "Blacks"
        ],
        [
         "38",
         "non_hate_video_22.mp4",
         "Non Hate",
         null,
         null
        ],
        [
         "39",
         "non_hate_video_23.mp4",
         "Non Hate",
         null,
         "Blacks"
        ],
        [
         "40",
         "non_hate_video_24.mp4",
         "Non Hate",
         null,
         null
        ],
        [
         "41",
         "non_hate_video_25.mp4",
         "Non Hate",
         null,
         null
        ],
        [
         "42",
         "non_hate_video_26.mp4",
         "Non Hate",
         null,
         null
        ],
        [
         "43",
         "non_hate_video_27.mp4",
         "Non Hate",
         null,
         "Blacks"
        ],
        [
         "44",
         "hate_video_18.mp4",
         "Hate",
         "[['00:00:00', '00:00:51']]",
         "Blacks"
        ],
        [
         "45",
         "non_hate_video_28.mp4",
         "Non Hate",
         null,
         null
        ],
        [
         "46",
         "hate_video_19.mp4",
         "Hate",
         "[['00:00:00', '00:00:42']]",
         "Blacks"
        ],
        [
         "47",
         "hate_video_20.mp4",
         "Hate",
         "[['00:00:00', '00:02:12']]",
         "Blacks"
        ],
        [
         "48",
         "non_hate_video_29.mp4",
         "Non Hate",
         null,
         null
        ],
        [
         "49",
         "non_hate_video_30.mp4",
         "Non Hate",
         null,
         null
        ]
       ],
       "shape": {
        "columns": 4,
        "rows": 1083
       }
      },
      "text/html": [
       "<div>\n",
       "<style scoped>\n",
       "    .dataframe tbody tr th:only-of-type {\n",
       "        vertical-align: middle;\n",
       "    }\n",
       "\n",
       "    .dataframe tbody tr th {\n",
       "        vertical-align: top;\n",
       "    }\n",
       "\n",
       "    .dataframe thead th {\n",
       "        text-align: right;\n",
       "    }\n",
       "</style>\n",
       "<table border=\"1\" class=\"dataframe\">\n",
       "  <thead>\n",
       "    <tr style=\"text-align: right;\">\n",
       "      <th></th>\n",
       "      <th>video_file_name</th>\n",
       "      <th>label</th>\n",
       "      <th>hate_snippet</th>\n",
       "      <th>target</th>\n",
       "    </tr>\n",
       "  </thead>\n",
       "  <tbody>\n",
       "    <tr>\n",
       "      <th>0</th>\n",
       "      <td>hate_video_1.mp4</td>\n",
       "      <td>Hate</td>\n",
       "      <td>[['00:00:34', '00:01:34']]</td>\n",
       "      <td>Blacks</td>\n",
       "    </tr>\n",
       "    <tr>\n",
       "      <th>1</th>\n",
       "      <td>hate_video_2.mp4</td>\n",
       "      <td>Hate</td>\n",
       "      <td>[['00:00:06', '00:02:06']]</td>\n",
       "      <td>Blacks</td>\n",
       "    </tr>\n",
       "    <tr>\n",
       "      <th>2</th>\n",
       "      <td>non_hate_video_1.mp4</td>\n",
       "      <td>Non Hate</td>\n",
       "      <td>NaN</td>\n",
       "      <td>Others</td>\n",
       "    </tr>\n",
       "    <tr>\n",
       "      <th>3</th>\n",
       "      <td>hate_video_3.mp4</td>\n",
       "      <td>Hate</td>\n",
       "      <td>[['00:00:03', '00:01:40'], ['00:01:41', '00:03...</td>\n",
       "      <td>Blacks</td>\n",
       "    </tr>\n",
       "    <tr>\n",
       "      <th>4</th>\n",
       "      <td>non_hate_video_2.mp4</td>\n",
       "      <td>Non Hate</td>\n",
       "      <td>NaN</td>\n",
       "      <td>Blacks</td>\n",
       "    </tr>\n",
       "    <tr>\n",
       "      <th>...</th>\n",
       "      <td>...</td>\n",
       "      <td>...</td>\n",
       "      <td>...</td>\n",
       "      <td>...</td>\n",
       "    </tr>\n",
       "    <tr>\n",
       "      <th>1078</th>\n",
       "      <td>non_hate_video_650.mp4</td>\n",
       "      <td>Non Hate</td>\n",
       "      <td>NaN</td>\n",
       "      <td>['Whites']</td>\n",
       "    </tr>\n",
       "    <tr>\n",
       "      <th>1079</th>\n",
       "      <td>hate_video_430.mp4</td>\n",
       "      <td>Hate</td>\n",
       "      <td>[['00:00:09', '00:04:04']]</td>\n",
       "      <td>['Jews']</td>\n",
       "    </tr>\n",
       "    <tr>\n",
       "      <th>1080</th>\n",
       "      <td>non_hate_video_651.mp4</td>\n",
       "      <td>Non Hate</td>\n",
       "      <td>NaN</td>\n",
       "      <td>['Others']</td>\n",
       "    </tr>\n",
       "    <tr>\n",
       "      <th>1081</th>\n",
       "      <td>non_hate_video_652.mp4</td>\n",
       "      <td>Non Hate</td>\n",
       "      <td>NaN</td>\n",
       "      <td>['Others']</td>\n",
       "    </tr>\n",
       "    <tr>\n",
       "      <th>1082</th>\n",
       "      <td>hate_video_431.mp4</td>\n",
       "      <td>Hate</td>\n",
       "      <td>[['00:00:02', '00:00:49']]</td>\n",
       "      <td>['Jews']</td>\n",
       "    </tr>\n",
       "  </tbody>\n",
       "</table>\n",
       "<p>1083 rows × 4 columns</p>\n",
       "</div>"
      ],
      "text/plain": [
       "             video_file_name     label  \\\n",
       "0           hate_video_1.mp4      Hate   \n",
       "1           hate_video_2.mp4      Hate   \n",
       "2       non_hate_video_1.mp4  Non Hate   \n",
       "3           hate_video_3.mp4      Hate   \n",
       "4       non_hate_video_2.mp4  Non Hate   \n",
       "...                      ...       ...   \n",
       "1078  non_hate_video_650.mp4  Non Hate   \n",
       "1079      hate_video_430.mp4      Hate   \n",
       "1080  non_hate_video_651.mp4  Non Hate   \n",
       "1081  non_hate_video_652.mp4  Non Hate   \n",
       "1082      hate_video_431.mp4      Hate   \n",
       "\n",
       "                                           hate_snippet      target  \n",
       "0                            [['00:00:34', '00:01:34']]      Blacks  \n",
       "1                            [['00:00:06', '00:02:06']]      Blacks  \n",
       "2                                                   NaN      Others  \n",
       "3     [['00:00:03', '00:01:40'], ['00:01:41', '00:03...      Blacks  \n",
       "4                                                   NaN      Blacks  \n",
       "...                                                 ...         ...  \n",
       "1078                                                NaN  ['Whites']  \n",
       "1079                         [['00:00:09', '00:04:04']]    ['Jews']  \n",
       "1080                                                NaN  ['Others']  \n",
       "1081                                                NaN  ['Others']  \n",
       "1082                         [['00:00:02', '00:00:49']]    ['Jews']  \n",
       "\n",
       "[1083 rows x 4 columns]"
      ]
     },
     "execution_count": 5,
     "metadata": {},
     "output_type": "execute_result"
    }
   ],
   "source": [
    "# Load Annotations\n",
    "annotations = pd.read_csv('/Users/Samuel/Documents/EPFL/S2/Deep Learning/Project/data/raw/videos/HateMM_annotation.csv')\n",
    "annotations"
   ]
  },
  {
   "cell_type": "code",
   "execution_count": 30,
   "id": "8d1b2c18",
   "metadata": {},
   "outputs": [
    {
     "name": "stdout",
     "output_type": "stream",
     "text": [
      "[[3, 207]]\n",
      "<class 'cv2.VideoCapture'>\n"
     ]
    },
    {
     "ename": "TypeError",
     "evalue": "can't multiply sequence by non-int of type 'float'",
     "output_type": "error",
     "traceback": [
      "\u001b[0;31m---------------------------------------------------------------------------\u001b[0m",
      "\u001b[0;31mTypeError\u001b[0m                                 Traceback (most recent call last)",
      "Cell \u001b[0;32mIn[30], line 23\u001b[0m\n\u001b[1;32m     21\u001b[0m \u001b[38;5;28mprint\u001b[39m(\u001b[38;5;28mtype\u001b[39m(video))\n\u001b[1;32m     22\u001b[0m fps \u001b[38;5;241m=\u001b[39m video\u001b[38;5;241m.\u001b[39mget(cv2\u001b[38;5;241m.\u001b[39mCAP_PROP_FPS)\n\u001b[0;32m---> 23\u001b[0m start_frame \u001b[38;5;241m=\u001b[39m \u001b[38;5;28mint\u001b[39m(\u001b[43mvideo_hate_snippet\u001b[49m\u001b[43m[\u001b[49m\u001b[38;5;241;43m0\u001b[39;49m\u001b[43m]\u001b[49m\u001b[43m \u001b[49m\u001b[38;5;241;43m*\u001b[39;49m\u001b[43m \u001b[49m\u001b[43mfps\u001b[49m)\n\u001b[1;32m     24\u001b[0m end_frame \u001b[38;5;241m=\u001b[39m \u001b[38;5;28mint\u001b[39m(video_hate_snippet[\u001b[38;5;241m1\u001b[39m] \u001b[38;5;241m*\u001b[39m fps)\n\u001b[1;32m     25\u001b[0m video\u001b[38;5;241m.\u001b[39mset(cv2\u001b[38;5;241m.\u001b[39mCAP_PROP_POS_FRAMES, start_frame)\n",
      "\u001b[0;31mTypeError\u001b[0m: can't multiply sequence by non-int of type 'float'"
     ]
    }
   ],
   "source": [
    "# Load video\n",
    "video_path = '/Users/Samuel/Documents/EPFL/S2/Deep Learning/Project/data/raw/videos/hateful/hate_video_3.mp4'\n",
    "video_name = video_path.split('/')[-1]\n",
    "video_hate_snippets = eval(annotations[annotations['video_file_name'] == video_name]['hate_snippet'].values[0])\n",
    "video_hate_snippets = [[sum(x*int(t) for x, t in zip([3600, 60, 1], time.split(':'))) for time in hate_snippets] for hate_snippets in video_hate_snippets]\n",
    "\n",
    "# Check if snippets are less than 5 seconds appart then concatenate\n",
    "video_hate_snippet = []\n",
    "for i in range(len(video_hate_snippets)):\n",
    "    if i == 0:\n",
    "        video_hate_snippet.append(video_hate_snippets[i])\n",
    "    else:\n",
    "        if video_hate_snippets[i][0] - video_hate_snippets[i-1][1] < 5:\n",
    "            video_hate_snippet[-1][1] = video_hate_snippets[i][1]\n",
    "        else:\n",
    "            video_hate_snippet.append(video_hate_snippets[i])\n",
    "print(video_hate_snippet)\n",
    "\n",
    "# Extract Hate Snippet \n",
    "video = cv2.VideoCapture(video_path)\n",
    "print(type(video))\n",
    "fps = video.get(cv2.CAP_PROP_FPS)\n",
    "start_frame = int(video_hate_snippet[0] * fps)\n",
    "end_frame = int(video_hate_snippet[1] * fps)\n",
    "video.set(cv2.CAP_PROP_POS_FRAMES, start_frame)\n",
    "\n",
    "# Create directory to save video snippet as mp4\n",
    "output_dir = '/Users/Samuel/Documents/EPFL/S2/Deep Learning/Project/data/clean/videos/hateful/'\n",
    "if not os.path.exists(output_dir):\n",
    "    os.makedirs(output_dir)\n",
    "\n",
    "# Create video writer\n",
    "fourcc = cv2.VideoWriter_fourcc(*'mp4v')\n",
    "output_path = os.path.join(output_dir, video_name)\n",
    "video_writer = cv2.VideoWriter(output_path, fourcc, fps, (int(video.get(3)), int(video.get(4))))\n",
    "\n",
    "# Read and save frames\n",
    "while True:\n",
    "    ret, frame = video.read()\n",
    "    if not ret:\n",
    "        break\n",
    "    current_frame = int(video.get(cv2.CAP_PROP_POS_FRAMES))\n",
    "    if current_frame > end_frame:\n",
    "        break\n",
    "    video_writer.write(frame)\n",
    "# Release video objects\n",
    "video.release()\n",
    "video_writer.release()"
   ]
  },
  {
   "cell_type": "code",
   "execution_count": 84,
   "id": "64d606f2",
   "metadata": {},
   "outputs": [],
   "source": [
    "# def extract_hate_snippet(video_path: str, start_frame: int, end_frame: int, output_path: str):\n",
    "#     \"\"\"\n",
    "#     Extracts a snippet from a video and saves it to the specified output path.\n",
    "    \n",
    "#     Parameters:\n",
    "#     - video: cv2.VideoCapture object\n",
    "#     - start_frame: int, starting frame number\n",
    "#     - end_frame: int, ending frame number\n",
    "#     - output_path: str, path to save the output video\n",
    "#     \"\"\"\n",
    "#     video = cv2.VideoCapture(video_path)\n",
    "\n",
    "#     # Create video writer\n",
    "#     fourcc = cv2.VideoWriter_fourcc(*'mp4v')\n",
    "#     fps = video.get(cv2.CAP_PROP_FPS)\n",
    "#     video.set(cv2.CAP_PROP_POS_FRAMES, start_frame)\n",
    "#     video_writer = cv2.VideoWriter(output_path, fourcc, fps, (int(video.get(3)), int(video.get(4))))\n",
    "    \n",
    "#     # Read and save frames\n",
    "#     while True:\n",
    "#         ret, frame = video.read()\n",
    "#         if not ret:\n",
    "#             break\n",
    "#         current_frame = int(video.get(cv2.CAP_PROP_POS_FRAMES))\n",
    "#         if current_frame > end_frame:\n",
    "#             break\n",
    "#         video_writer.write(frame)\n",
    "    \n",
    "#     # Release video objects\n",
    "#     video.release()\n",
    "#     video_writer.release()\n",
    "\n",
    "def extract_hate_snippet(video_path: Path, start: float, end: float, output_path: Path):\n",
    "    \"\"\"\n",
    "    Extracts a snippet from a video and saves it to the specified output path.\n",
    "    \n",
    "    Parameters:\n",
    "    - video_path: str, path to the video file\n",
    "    - start: float, start time in seconds\n",
    "    - end: float, end time in seconds\n",
    "    - output_path: str, path to save the output video\n",
    "    \"\"\"\n",
    "    cmd = [\n",
    "        \"ffmpeg\",\n",
    "        \"-ss\", start,\n",
    "        \"-to\", end,\n",
    "        \"-i\", str(video_path),\n",
    "        \"-c:v\", \"copy\",\n",
    "        \"-c:a\", \"copy\",\n",
    "        \"-y\",\n",
    "        str(output_path)\n",
    "    ]\n",
    "    subprocess.run(cmd, check=True)\n",
    "\n",
    "def process_video(video_path, annotations, output_dir):\n",
    "    \"\"\"\n",
    "    Creates hate snippets from a video based on the provided annotations.\n",
    "    \n",
    "    Parameters:\n",
    "    - video_path: str, path to the video file\n",
    "    - annotations: pd.DataFrame, DataFrame containing the annotations\n",
    "    \"\"\"\n",
    "\n",
    "    video_name = os.path.basename(video_path)\n",
    "\n",
    "    # Get Hateful Snippets\n",
    "    video_hate_snippets = eval(annotations[annotations['video_file_name'] == video_name]['hate_snippet'].values[0])\n",
    "    print(video_hate_snippets)\n",
    "    video_hate_snippets_seconds = [[sum(x*int(t) for x, t in zip([3600, 60, 1], time.split(':'))) for time in hate_snippets] for hate_snippets in video_hate_snippets] # Convert to seconds\n",
    "\n",
    "    # Check if snippets are less than 5 seconds appart then concatenate, format 00:00:00\n",
    "    video_hate_snippets_concat = []\n",
    "    for i in range(len(video_hate_snippets)):\n",
    "        if i == 0:\n",
    "            video_hate_snippets_concat.append(video_hate_snippets[i])\n",
    "        else:\n",
    "            if video_hate_snippets_seconds[i][0] - video_hate_snippets_seconds[i-1][1] < 5:\n",
    "                video_hate_snippets_concat[-1][1] = video_hate_snippets[i][1]\n",
    "            else:\n",
    "                video_hate_snippets_concat.append(video_hate_snippets[i])\n",
    "        \n",
    "    print(video_hate_snippets_concat)\n",
    "    \n",
    "    # Create directory to save video snippet as mp4\n",
    "    if not os.path.exists(output_dir):\n",
    "        os.makedirs(output_dir)\n",
    "    \n",
    "    # Extract each hate snippet\n",
    "    for i in range(len(video_hate_snippets)):\n",
    "        start = video_hate_snippets[i][0]\n",
    "        end = video_hate_snippets[i][1]\n",
    "        output_path = os.path.join(output_dir, f\"{video_name.split('.')[0]}_snippet_{i}.mp4\")\n",
    "        extract_hate_snippet(video_path, start, end, output_path)"
   ]
  },
  {
   "cell_type": "code",
   "execution_count": null,
   "id": "de10873a",
   "metadata": {},
   "outputs": [
    {
     "name": "stdout",
     "output_type": "stream",
     "text": [
      "[['00:00:34', '00:02:31'], ['00:03:07', '00:03:44'], ['00:04:04', '00:04:50'], ['00:05:11', '00:05:58'], ['00:06:14', '00:06:54'], ['00:07:08', '00:08:01'], ['00:09:45', '00:10:18']]\n",
      "[['00:00:34', '00:02:31'], ['00:03:07', '00:03:44'], ['00:04:04', '00:04:50'], ['00:05:11', '00:05:58'], ['00:06:14', '00:06:54'], ['00:07:08', '00:08:01'], ['00:09:45', '00:10:18']]\n"
     ]
    },
    {
     "name": "stderr",
     "output_type": "stream",
     "text": [
      "ffmpeg version 7.1.1 Copyright (c) 2000-2025 the FFmpeg developers\n",
      "  built with Apple clang version 16.0.0 (clang-1600.0.26.6)\n",
      "  configuration: --prefix=/opt/homebrew/Cellar/ffmpeg/7.1.1_2 --enable-shared --enable-pthreads --enable-version3 --cc=clang --host-cflags= --host-ldflags='-Wl,-ld_classic' --enable-ffplay --enable-gnutls --enable-gpl --enable-libaom --enable-libaribb24 --enable-libbluray --enable-libdav1d --enable-libharfbuzz --enable-libjxl --enable-libmp3lame --enable-libopus --enable-librav1e --enable-librist --enable-librubberband --enable-libsnappy --enable-libsrt --enable-libssh --enable-libsvtav1 --enable-libtesseract --enable-libtheora --enable-libvidstab --enable-libvmaf --enable-libvorbis --enable-libvpx --enable-libwebp --enable-libx264 --enable-libx265 --enable-libxml2 --enable-libxvid --enable-lzma --enable-libfontconfig --enable-libfreetype --enable-frei0r --enable-libass --enable-libopencore-amrnb --enable-libopencore-amrwb --enable-libopenjpeg --enable-libspeex --enable-libsoxr --enable-libzmq --enable-libzimg --disable-libjack --disable-indev=jack --enable-videotoolbox --enable-audiotoolbox --enable-neon\n",
      "  libavutil      59. 39.100 / 59. 39.100\n",
      "  libavcodec     61. 19.101 / 61. 19.101\n",
      "  libavformat    61.  7.100 / 61.  7.100\n",
      "  libavdevice    61.  3.100 / 61.  3.100\n",
      "  libavfilter    10.  4.100 / 10.  4.100\n",
      "  libswscale      8.  3.100 /  8.  3.100\n",
      "  libswresample   5.  3.100 /  5.  3.100\n",
      "  libpostproc    58.  3.100 / 58.  3.100\n",
      "Input #0, mov,mp4,m4a,3gp,3g2,mj2, from '/Users/Samuel/Documents/EPFL/S2/Deep Learning/Project/data/raw/videos/hateful/hate_video_29.mp4':\n",
      "  Metadata:\n",
      "    major_brand     : isom\n",
      "    minor_version   : 512\n",
      "    compatible_brands: isomiso2avc1mp41\n",
      "    encoder         : Lavf57.83.100\n",
      "  Duration: 00:10:18.52, start: 0.000000, bitrate: 284 kb/s\n",
      "  Stream #0:0[0x1](und): Video: h264 (High) (avc1 / 0x31637661), yuv420p(progressive), 854x480 [SAR 1280:1281 DAR 16:9], 175 kb/s, 60 fps, 60 tbr, 15360 tbn (default)\n",
      "      Metadata:\n",
      "        handler_name    : VideoHandler\n",
      "        vendor_id       : [0][0][0][0]\n",
      "  Stream #0:1[0x2](und): Audio: aac (LC) (mp4a / 0x6134706D), 48000 Hz, stereo, fltp, 95 kb/s (default)\n",
      "      Metadata:\n",
      "        handler_name    : SoundHandler\n",
      "        vendor_id       : [0][0][0][0]\n",
      "Stream mapping:\n",
      "  Stream #0:0 -> #0:0 (copy)\n",
      "  Stream #0:1 -> #0:1 (copy)\n",
      "Output #0, mp4, to '/Users/Samuel/Documents/EPFL/S2/Deep Learning/Project/data/clean/videos/hateful/hate_video_29_snippet_0.mp4':\n",
      "  Metadata:\n",
      "    major_brand     : isom\n",
      "    minor_version   : 512\n",
      "    compatible_brands: isomiso2avc1mp41\n",
      "    encoder         : Lavf61.7.100\n",
      "  Stream #0:0(und): Video: h264 (High) (avc1 / 0x31637661), yuv420p(progressive), 854x480 [SAR 1280:1281 DAR 16:9], q=2-31, 175 kb/s, 60 fps, 60 tbr, 15360 tbn (default)\n",
      "      Metadata:\n",
      "        handler_name    : VideoHandler\n",
      "        vendor_id       : [0][0][0][0]\n",
      "  Stream #0:1(und): Audio: aac (LC) (mp4a / 0x6134706D), 48000 Hz, stereo, fltp, 95 kb/s (default)\n",
      "      Metadata:\n",
      "        handler_name    : SoundHandler\n",
      "        vendor_id       : [0][0][0][0]\n",
      "Press [q] to stop, [?] for help\n",
      "[out#0/mp4 @ 0x14d8040e0] video:3013KiB audio:1381KiB subtitle:0KiB other streams:0KiB global headers:0KiB muxing overhead: 4.122005%\n",
      "frame= 7068 fps=0.0 q=-1.0 Lsize=    4575KiB time=00:01:57.00 bitrate= 320.4kbits/s speed=3.17e+03x    \n",
      "ffmpeg version 7.1.1 Copyright (c) 2000-2025 the FFmpeg developers\n",
      "  built with Apple clang version 16.0.0 (clang-1600.0.26.6)\n",
      "  configuration: --prefix=/opt/homebrew/Cellar/ffmpeg/7.1.1_2 --enable-shared --enable-pthreads --enable-version3 --cc=clang --host-cflags= --host-ldflags='-Wl,-ld_classic' --enable-ffplay --enable-gnutls --enable-gpl --enable-libaom --enable-libaribb24 --enable-libbluray --enable-libdav1d --enable-libharfbuzz --enable-libjxl --enable-libmp3lame --enable-libopus --enable-librav1e --enable-librist --enable-librubberband --enable-libsnappy --enable-libsrt --enable-libssh --enable-libsvtav1 --enable-libtesseract --enable-libtheora --enable-libvidstab --enable-libvmaf --enable-libvorbis --enable-libvpx --enable-libwebp --enable-libx264 --enable-libx265 --enable-libxml2 --enable-libxvid --enable-lzma --enable-libfontconfig --enable-libfreetype --enable-frei0r --enable-libass --enable-libopencore-amrnb --enable-libopencore-amrwb --enable-libopenjpeg --enable-libspeex --enable-libsoxr --enable-libzmq --enable-libzimg --disable-libjack --disable-indev=jack --enable-videotoolbox --enable-audiotoolbox --enable-neon\n",
      "  libavutil      59. 39.100 / 59. 39.100\n",
      "  libavcodec     61. 19.101 / 61. 19.101\n",
      "  libavformat    61.  7.100 / 61.  7.100\n",
      "  libavdevice    61.  3.100 / 61.  3.100\n",
      "  libavfilter    10.  4.100 / 10.  4.100\n",
      "  libswscale      8.  3.100 /  8.  3.100\n",
      "  libswresample   5.  3.100 /  5.  3.100\n",
      "  libpostproc    58.  3.100 / 58.  3.100\n",
      "Input #0, mov,mp4,m4a,3gp,3g2,mj2, from '/Users/Samuel/Documents/EPFL/S2/Deep Learning/Project/data/raw/videos/hateful/hate_video_29.mp4':\n",
      "  Metadata:\n",
      "    major_brand     : isom\n",
      "    minor_version   : 512\n",
      "    compatible_brands: isomiso2avc1mp41\n",
      "    encoder         : Lavf57.83.100\n",
      "  Duration: 00:10:18.52, start: 0.000000, bitrate: 284 kb/s\n",
      "  Stream #0:0[0x1](und): Video: h264 (High) (avc1 / 0x31637661), yuv420p(progressive), 854x480 [SAR 1280:1281 DAR 16:9], 175 kb/s, 60 fps, 60 tbr, 15360 tbn (default)\n",
      "      Metadata:\n",
      "        handler_name    : VideoHandler\n",
      "        vendor_id       : [0][0][0][0]\n",
      "  Stream #0:1[0x2](und): Audio: aac (LC) (mp4a / 0x6134706D), 48000 Hz, stereo, fltp, 95 kb/s (default)\n",
      "      Metadata:\n",
      "        handler_name    : SoundHandler\n",
      "        vendor_id       : [0][0][0][0]\n",
      "Stream mapping:\n",
      "  Stream #0:0 -> #0:0 (copy)\n",
      "  Stream #0:1 -> #0:1 (copy)\n",
      "Output #0, mp4, to '/Users/Samuel/Documents/EPFL/S2/Deep Learning/Project/data/clean/videos/hateful/hate_video_29_snippet_1.mp4':\n",
      "  Metadata:\n",
      "    major_brand     : isom\n",
      "    minor_version   : 512\n",
      "    compatible_brands: isomiso2avc1mp41\n",
      "    encoder         : Lavf61.7.100\n",
      "  Stream #0:0(und): Video: h264 (High) (avc1 / 0x31637661), yuv420p(progressive), 854x480 [SAR 1280:1281 DAR 16:9], q=2-31, 175 kb/s, 60 fps, 60 tbr, 15360 tbn (default)\n",
      "      Metadata:\n",
      "        handler_name    : VideoHandler\n",
      "        vendor_id       : [0][0][0][0]\n",
      "  Stream #0:1(und): Audio: aac (LC) (mp4a / 0x6134706D), 48000 Hz, stereo, fltp, 95 kb/s (default)\n",
      "      Metadata:\n",
      "        handler_name    : SoundHandler\n",
      "        vendor_id       : [0][0][0][0]\n",
      "Press [q] to stop, [?] for help\n",
      "[out#0/mp4 @ 0x13961e450] video:687KiB audio:455KiB subtitle:0KiB other streams:0KiB global headers:0KiB muxing overhead: 5.341905%\n",
      "frame= 2328 fps=0.0 q=-1.0 Lsize=    1202KiB time=00:00:37.00 bitrate= 266.2kbits/s speed=2.92e+03x    \n",
      "ffmpeg version 7.1.1 Copyright (c) 2000-2025 the FFmpeg developers\n",
      "  built with Apple clang version 16.0.0 (clang-1600.0.26.6)\n",
      "  configuration: --prefix=/opt/homebrew/Cellar/ffmpeg/7.1.1_2 --enable-shared --enable-pthreads --enable-version3 --cc=clang --host-cflags= --host-ldflags='-Wl,-ld_classic' --enable-ffplay --enable-gnutls --enable-gpl --enable-libaom --enable-libaribb24 --enable-libbluray --enable-libdav1d --enable-libharfbuzz --enable-libjxl --enable-libmp3lame --enable-libopus --enable-librav1e --enable-librist --enable-librubberband --enable-libsnappy --enable-libsrt --enable-libssh --enable-libsvtav1 --enable-libtesseract --enable-libtheora --enable-libvidstab --enable-libvmaf --enable-libvorbis --enable-libvpx --enable-libwebp --enable-libx264 --enable-libx265 --enable-libxml2 --enable-libxvid --enable-lzma --enable-libfontconfig --enable-libfreetype --enable-frei0r --enable-libass --enable-libopencore-amrnb --enable-libopencore-amrwb --enable-libopenjpeg --enable-libspeex --enable-libsoxr --enable-libzmq --enable-libzimg --disable-libjack --disable-indev=jack --enable-videotoolbox --enable-audiotoolbox --enable-neon\n",
      "  libavutil      59. 39.100 / 59. 39.100\n",
      "  libavcodec     61. 19.101 / 61. 19.101\n",
      "  libavformat    61.  7.100 / 61.  7.100\n",
      "  libavdevice    61.  3.100 / 61.  3.100\n",
      "  libavfilter    10.  4.100 / 10.  4.100\n",
      "  libswscale      8.  3.100 /  8.  3.100\n",
      "  libswresample   5.  3.100 /  5.  3.100\n",
      "  libpostproc    58.  3.100 / 58.  3.100\n",
      "Input #0, mov,mp4,m4a,3gp,3g2,mj2, from '/Users/Samuel/Documents/EPFL/S2/Deep Learning/Project/data/raw/videos/hateful/hate_video_29.mp4':\n",
      "  Metadata:\n",
      "    major_brand     : isom\n",
      "    minor_version   : 512\n",
      "    compatible_brands: isomiso2avc1mp41\n",
      "    encoder         : Lavf57.83.100\n",
      "  Duration: 00:10:18.52, start: 0.000000, bitrate: 284 kb/s\n",
      "  Stream #0:0[0x1](und): Video: h264 (High) (avc1 / 0x31637661), yuv420p(progressive), 854x480 [SAR 1280:1281 DAR 16:9], 175 kb/s, 60 fps, 60 tbr, 15360 tbn (default)\n",
      "      Metadata:\n",
      "        handler_name    : VideoHandler\n",
      "        vendor_id       : [0][0][0][0]\n",
      "  Stream #0:1[0x2](und): Audio: aac (LC) (mp4a / 0x6134706D), 48000 Hz, stereo, fltp, 95 kb/s (default)\n",
      "      Metadata:\n",
      "        handler_name    : SoundHandler\n",
      "        vendor_id       : [0][0][0][0]\n",
      "Stream mapping:\n",
      "  Stream #0:0 -> #0:0 (copy)\n",
      "  Stream #0:1 -> #0:1 (copy)\n",
      "Output #0, mp4, to '/Users/Samuel/Documents/EPFL/S2/Deep Learning/Project/data/clean/videos/hateful/hate_video_29_snippet_2.mp4':\n",
      "  Metadata:\n",
      "    major_brand     : isom\n",
      "    minor_version   : 512\n",
      "    compatible_brands: isomiso2avc1mp41\n",
      "    encoder         : Lavf61.7.100\n",
      "  Stream #0:0(und): Video: h264 (High) (avc1 / 0x31637661), yuv420p(progressive), 854x480 [SAR 1280:1281 DAR 16:9], q=2-31, 175 kb/s, 60 fps, 60 tbr, 15360 tbn (default)\n",
      "      Metadata:\n",
      "        handler_name    : VideoHandler\n",
      "        vendor_id       : [0][0][0][0]\n",
      "  Stream #0:1(und): Audio: aac (LC) (mp4a / 0x6134706D), 48000 Hz, stereo, fltp, 95 kb/s (default)\n",
      "      Metadata:\n",
      "        handler_name    : SoundHandler\n",
      "        vendor_id       : [0][0][0][0]\n",
      "Press [q] to stop, [?] for help\n",
      "[out#0/mp4 @ 0x13a0295b0] video:961KiB audio:549KiB subtitle:0KiB other streams:0KiB global headers:0KiB muxing overhead: 4.876725%\n",
      "frame= 2808 fps=0.0 q=-1.0 Lsize=    1584KiB time=00:00:46.00 bitrate= 282.0kbits/s speed=2.76e+03x    \n",
      "ffmpeg version 7.1.1 Copyright (c) 2000-2025 the FFmpeg developers\n",
      "  built with Apple clang version 16.0.0 (clang-1600.0.26.6)\n",
      "  configuration: --prefix=/opt/homebrew/Cellar/ffmpeg/7.1.1_2 --enable-shared --enable-pthreads --enable-version3 --cc=clang --host-cflags= --host-ldflags='-Wl,-ld_classic' --enable-ffplay --enable-gnutls --enable-gpl --enable-libaom --enable-libaribb24 --enable-libbluray --enable-libdav1d --enable-libharfbuzz --enable-libjxl --enable-libmp3lame --enable-libopus --enable-librav1e --enable-librist --enable-librubberband --enable-libsnappy --enable-libsrt --enable-libssh --enable-libsvtav1 --enable-libtesseract --enable-libtheora --enable-libvidstab --enable-libvmaf --enable-libvorbis --enable-libvpx --enable-libwebp --enable-libx264 --enable-libx265 --enable-libxml2 --enable-libxvid --enable-lzma --enable-libfontconfig --enable-libfreetype --enable-frei0r --enable-libass --enable-libopencore-amrnb --enable-libopencore-amrwb --enable-libopenjpeg --enable-libspeex --enable-libsoxr --enable-libzmq --enable-libzimg --disable-libjack --disable-indev=jack --enable-videotoolbox --enable-audiotoolbox --enable-neon\n",
      "  libavutil      59. 39.100 / 59. 39.100\n",
      "  libavcodec     61. 19.101 / 61. 19.101\n",
      "  libavformat    61.  7.100 / 61.  7.100\n",
      "  libavdevice    61.  3.100 / 61.  3.100\n",
      "  libavfilter    10.  4.100 / 10.  4.100\n",
      "  libswscale      8.  3.100 /  8.  3.100\n",
      "  libswresample   5.  3.100 /  5.  3.100\n",
      "  libpostproc    58.  3.100 / 58.  3.100\n",
      "Input #0, mov,mp4,m4a,3gp,3g2,mj2, from '/Users/Samuel/Documents/EPFL/S2/Deep Learning/Project/data/raw/videos/hateful/hate_video_29.mp4':\n",
      "  Metadata:\n",
      "    major_brand     : isom\n",
      "    minor_version   : 512\n",
      "    compatible_brands: isomiso2avc1mp41\n",
      "    encoder         : Lavf57.83.100\n",
      "  Duration: 00:10:18.52, start: 0.000000, bitrate: 284 kb/s\n",
      "  Stream #0:0[0x1](und): Video: h264 (High) (avc1 / 0x31637661), yuv420p(progressive), 854x480 [SAR 1280:1281 DAR 16:9], 175 kb/s, 60 fps, 60 tbr, 15360 tbn (default)\n",
      "      Metadata:\n",
      "        handler_name    : VideoHandler\n",
      "        vendor_id       : [0][0][0][0]\n",
      "  Stream #0:1[0x2](und): Audio: aac (LC) (mp4a / 0x6134706D), 48000 Hz, stereo, fltp, 95 kb/s (default)\n",
      "      Metadata:\n",
      "        handler_name    : SoundHandler\n",
      "        vendor_id       : [0][0][0][0]\n",
      "Stream mapping:\n",
      "  Stream #0:0 -> #0:0 (copy)\n",
      "  Stream #0:1 -> #0:1 (copy)\n",
      "Output #0, mp4, to '/Users/Samuel/Documents/EPFL/S2/Deep Learning/Project/data/clean/videos/hateful/hate_video_29_snippet_3.mp4':\n",
      "  Metadata:\n",
      "    major_brand     : isom\n",
      "    minor_version   : 512\n",
      "    compatible_brands: isomiso2avc1mp41\n",
      "    encoder         : Lavf61.7.100\n",
      "  Stream #0:0(und): Video: h264 (High) (avc1 / 0x31637661), yuv420p(progressive), 854x480 [SAR 1280:1281 DAR 16:9], q=2-31, 175 kb/s, 60 fps, 60 tbr, 15360 tbn (default)\n",
      "      Metadata:\n",
      "        handler_name    : VideoHandler\n",
      "        vendor_id       : [0][0][0][0]\n",
      "  Stream #0:1(und): Audio: aac (LC) (mp4a / 0x6134706D), 48000 Hz, stereo, fltp, 95 kb/s (default)\n",
      "      Metadata:\n",
      "        handler_name    : SoundHandler\n",
      "        vendor_id       : [0][0][0][0]\n",
      "Press [q] to stop, [?] for help\n",
      "[out#0/mp4 @ 0x126f05810] video:798KiB audio:572KiB subtitle:0KiB other streams:0KiB global headers:0KiB muxing overhead: 5.542034%\n",
      "frame= 2928 fps=0.0 q=-1.0 Lsize=    1446KiB time=00:00:47.00 bitrate= 252.1kbits/s speed=2.88e+03x    \n",
      "ffmpeg version 7.1.1 Copyright (c) 2000-2025 the FFmpeg developers\n",
      "  built with Apple clang version 16.0.0 (clang-1600.0.26.6)\n",
      "  configuration: --prefix=/opt/homebrew/Cellar/ffmpeg/7.1.1_2 --enable-shared --enable-pthreads --enable-version3 --cc=clang --host-cflags= --host-ldflags='-Wl,-ld_classic' --enable-ffplay --enable-gnutls --enable-gpl --enable-libaom --enable-libaribb24 --enable-libbluray --enable-libdav1d --enable-libharfbuzz --enable-libjxl --enable-libmp3lame --enable-libopus --enable-librav1e --enable-librist --enable-librubberband --enable-libsnappy --enable-libsrt --enable-libssh --enable-libsvtav1 --enable-libtesseract --enable-libtheora --enable-libvidstab --enable-libvmaf --enable-libvorbis --enable-libvpx --enable-libwebp --enable-libx264 --enable-libx265 --enable-libxml2 --enable-libxvid --enable-lzma --enable-libfontconfig --enable-libfreetype --enable-frei0r --enable-libass --enable-libopencore-amrnb --enable-libopencore-amrwb --enable-libopenjpeg --enable-libspeex --enable-libsoxr --enable-libzmq --enable-libzimg --disable-libjack --disable-indev=jack --enable-videotoolbox --enable-audiotoolbox --enable-neon\n",
      "  libavutil      59. 39.100 / 59. 39.100\n",
      "  libavcodec     61. 19.101 / 61. 19.101\n",
      "  libavformat    61.  7.100 / 61.  7.100\n",
      "  libavdevice    61.  3.100 / 61.  3.100\n",
      "  libavfilter    10.  4.100 / 10.  4.100\n",
      "  libswscale      8.  3.100 /  8.  3.100\n",
      "  libswresample   5.  3.100 /  5.  3.100\n",
      "  libpostproc    58.  3.100 / 58.  3.100\n",
      "Input #0, mov,mp4,m4a,3gp,3g2,mj2, from '/Users/Samuel/Documents/EPFL/S2/Deep Learning/Project/data/raw/videos/hateful/hate_video_29.mp4':\n",
      "  Metadata:\n",
      "    major_brand     : isom\n",
      "    minor_version   : 512\n",
      "    compatible_brands: isomiso2avc1mp41\n",
      "    encoder         : Lavf57.83.100\n",
      "  Duration: 00:10:18.52, start: 0.000000, bitrate: 284 kb/s\n",
      "  Stream #0:0[0x1](und): Video: h264 (High) (avc1 / 0x31637661), yuv420p(progressive), 854x480 [SAR 1280:1281 DAR 16:9], 175 kb/s, 60 fps, 60 tbr, 15360 tbn (default)\n",
      "      Metadata:\n",
      "        handler_name    : VideoHandler\n",
      "        vendor_id       : [0][0][0][0]\n",
      "  Stream #0:1[0x2](und): Audio: aac (LC) (mp4a / 0x6134706D), 48000 Hz, stereo, fltp, 95 kb/s (default)\n",
      "      Metadata:\n",
      "        handler_name    : SoundHandler\n",
      "        vendor_id       : [0][0][0][0]\n",
      "Stream mapping:\n",
      "  Stream #0:0 -> #0:0 (copy)\n",
      "  Stream #0:1 -> #0:1 (copy)\n",
      "Output #0, mp4, to '/Users/Samuel/Documents/EPFL/S2/Deep Learning/Project/data/clean/videos/hateful/hate_video_29_snippet_4.mp4':\n",
      "  Metadata:\n",
      "    major_brand     : isom\n",
      "    minor_version   : 512\n",
      "    compatible_brands: isomiso2avc1mp41\n",
      "    encoder         : Lavf61.7.100\n",
      "  Stream #0:0(und): Video: h264 (High) (avc1 / 0x31637661), yuv420p(progressive), 854x480 [SAR 1280:1281 DAR 16:9], q=2-31, 175 kb/s, 60 fps, 60 tbr, 15360 tbn (default)\n",
      "      Metadata:\n",
      "        handler_name    : VideoHandler\n",
      "        vendor_id       : [0][0][0][0]\n",
      "  Stream #0:1(und): Audio: aac (LC) (mp4a / 0x6134706D), 48000 Hz, stereo, fltp, 95 kb/s (default)\n",
      "      Metadata:\n",
      "        handler_name    : SoundHandler\n",
      "        vendor_id       : [0][0][0][0]\n",
      "Press [q] to stop, [?] for help\n",
      "[out#0/mp4 @ 0x157f0da80] video:774KiB audio:478KiB subtitle:0KiB other streams:0KiB global headers:0KiB muxing overhead: 5.097657%\n",
      "frame= 2448 fps=0.0 q=-1.0 Lsize=    1316KiB time=00:00:40.00 bitrate= 269.5kbits/s speed=2.85e+03x    \n",
      "ffmpeg version 7.1.1 Copyright (c) 2000-2025 the FFmpeg developers\n",
      "  built with Apple clang version 16.0.0 (clang-1600.0.26.6)\n",
      "  configuration: --prefix=/opt/homebrew/Cellar/ffmpeg/7.1.1_2 --enable-shared --enable-pthreads --enable-version3 --cc=clang --host-cflags= --host-ldflags='-Wl,-ld_classic' --enable-ffplay --enable-gnutls --enable-gpl --enable-libaom --enable-libaribb24 --enable-libbluray --enable-libdav1d --enable-libharfbuzz --enable-libjxl --enable-libmp3lame --enable-libopus --enable-librav1e --enable-librist --enable-librubberband --enable-libsnappy --enable-libsrt --enable-libssh --enable-libsvtav1 --enable-libtesseract --enable-libtheora --enable-libvidstab --enable-libvmaf --enable-libvorbis --enable-libvpx --enable-libwebp --enable-libx264 --enable-libx265 --enable-libxml2 --enable-libxvid --enable-lzma --enable-libfontconfig --enable-libfreetype --enable-frei0r --enable-libass --enable-libopencore-amrnb --enable-libopencore-amrwb --enable-libopenjpeg --enable-libspeex --enable-libsoxr --enable-libzmq --enable-libzimg --disable-libjack --disable-indev=jack --enable-videotoolbox --enable-audiotoolbox --enable-neon\n",
      "  libavutil      59. 39.100 / 59. 39.100\n",
      "  libavcodec     61. 19.101 / 61. 19.101\n",
      "  libavformat    61.  7.100 / 61.  7.100\n",
      "  libavdevice    61.  3.100 / 61.  3.100\n",
      "  libavfilter    10.  4.100 / 10.  4.100\n",
      "  libswscale      8.  3.100 /  8.  3.100\n",
      "  libswresample   5.  3.100 /  5.  3.100\n",
      "  libpostproc    58.  3.100 / 58.  3.100\n",
      "Input #0, mov,mp4,m4a,3gp,3g2,mj2, from '/Users/Samuel/Documents/EPFL/S2/Deep Learning/Project/data/raw/videos/hateful/hate_video_29.mp4':\n",
      "  Metadata:\n",
      "    major_brand     : isom\n",
      "    minor_version   : 512\n",
      "    compatible_brands: isomiso2avc1mp41\n",
      "    encoder         : Lavf57.83.100\n",
      "  Duration: 00:10:18.52, start: 0.000000, bitrate: 284 kb/s\n",
      "  Stream #0:0[0x1](und): Video: h264 (High) (avc1 / 0x31637661), yuv420p(progressive), 854x480 [SAR 1280:1281 DAR 16:9], 175 kb/s, 60 fps, 60 tbr, 15360 tbn (default)\n",
      "      Metadata:\n",
      "        handler_name    : VideoHandler\n",
      "        vendor_id       : [0][0][0][0]\n",
      "  Stream #0:1[0x2](und): Audio: aac (LC) (mp4a / 0x6134706D), 48000 Hz, stereo, fltp, 95 kb/s (default)\n",
      "      Metadata:\n",
      "        handler_name    : SoundHandler\n",
      "        vendor_id       : [0][0][0][0]\n",
      "Stream mapping:\n",
      "  Stream #0:0 -> #0:0 (copy)\n",
      "  Stream #0:1 -> #0:1 (copy)\n",
      "Output #0, mp4, to '/Users/Samuel/Documents/EPFL/S2/Deep Learning/Project/data/clean/videos/hateful/hate_video_29_snippet_5.mp4':\n",
      "  Metadata:\n",
      "    major_brand     : isom\n",
      "    minor_version   : 512\n",
      "    compatible_brands: isomiso2avc1mp41\n",
      "    encoder         : Lavf61.7.100\n",
      "  Stream #0:0(und): Video: h264 (High) (avc1 / 0x31637661), yuv420p(progressive), 854x480 [SAR 1280:1281 DAR 16:9], q=2-31, 175 kb/s, 60 fps, 60 tbr, 15360 tbn (default)\n",
      "      Metadata:\n",
      "        handler_name    : VideoHandler\n",
      "        vendor_id       : [0][0][0][0]\n",
      "  Stream #0:1(und): Audio: aac (LC) (mp4a / 0x6134706D), 48000 Hz, stereo, fltp, 95 kb/s (default)\n",
      "      Metadata:\n",
      "        handler_name    : SoundHandler\n",
      "        vendor_id       : [0][0][0][0]\n",
      "Press [q] to stop, [?] for help\n",
      "[out#0/mp4 @ 0x12ce04360] video:1107KiB audio:630KiB subtitle:0KiB other streams:0KiB global headers:0KiB muxing overhead: 4.774299%\n",
      "frame= 3228 fps=0.0 q=-1.0 Lsize=    1820KiB time=00:00:53.00 bitrate= 281.3kbits/s speed=2.99e+03x    \n",
      "ffmpeg version 7.1.1 Copyright (c) 2000-2025 the FFmpeg developers\n",
      "  built with Apple clang version 16.0.0 (clang-1600.0.26.6)\n",
      "  configuration: --prefix=/opt/homebrew/Cellar/ffmpeg/7.1.1_2 --enable-shared --enable-pthreads --enable-version3 --cc=clang --host-cflags= --host-ldflags='-Wl,-ld_classic' --enable-ffplay --enable-gnutls --enable-gpl --enable-libaom --enable-libaribb24 --enable-libbluray --enable-libdav1d --enable-libharfbuzz --enable-libjxl --enable-libmp3lame --enable-libopus --enable-librav1e --enable-librist --enable-librubberband --enable-libsnappy --enable-libsrt --enable-libssh --enable-libsvtav1 --enable-libtesseract --enable-libtheora --enable-libvidstab --enable-libvmaf --enable-libvorbis --enable-libvpx --enable-libwebp --enable-libx264 --enable-libx265 --enable-libxml2 --enable-libxvid --enable-lzma --enable-libfontconfig --enable-libfreetype --enable-frei0r --enable-libass --enable-libopencore-amrnb --enable-libopencore-amrwb --enable-libopenjpeg --enable-libspeex --enable-libsoxr --enable-libzmq --enable-libzimg --disable-libjack --disable-indev=jack --enable-videotoolbox --enable-audiotoolbox --enable-neon\n",
      "  libavutil      59. 39.100 / 59. 39.100\n",
      "  libavcodec     61. 19.101 / 61. 19.101\n",
      "  libavformat    61.  7.100 / 61.  7.100\n",
      "  libavdevice    61.  3.100 / 61.  3.100\n",
      "  libavfilter    10.  4.100 / 10.  4.100\n",
      "  libswscale      8.  3.100 /  8.  3.100\n",
      "  libswresample   5.  3.100 /  5.  3.100\n",
      "  libpostproc    58.  3.100 / 58.  3.100\n",
      "Input #0, mov,mp4,m4a,3gp,3g2,mj2, from '/Users/Samuel/Documents/EPFL/S2/Deep Learning/Project/data/raw/videos/hateful/hate_video_29.mp4':\n",
      "  Metadata:\n",
      "    major_brand     : isom\n",
      "    minor_version   : 512\n",
      "    compatible_brands: isomiso2avc1mp41\n",
      "    encoder         : Lavf57.83.100\n",
      "  Duration: 00:10:18.52, start: 0.000000, bitrate: 284 kb/s\n",
      "  Stream #0:0[0x1](und): Video: h264 (High) (avc1 / 0x31637661), yuv420p(progressive), 854x480 [SAR 1280:1281 DAR 16:9], 175 kb/s, 60 fps, 60 tbr, 15360 tbn (default)\n",
      "      Metadata:\n",
      "        handler_name    : VideoHandler\n",
      "        vendor_id       : [0][0][0][0]\n",
      "  Stream #0:1[0x2](und): Audio: aac (LC) (mp4a / 0x6134706D), 48000 Hz, stereo, fltp, 95 kb/s (default)\n",
      "      Metadata:\n",
      "        handler_name    : SoundHandler\n",
      "        vendor_id       : [0][0][0][0]\n",
      "Stream mapping:\n",
      "  Stream #0:0 -> #0:0 (copy)\n",
      "  Stream #0:1 -> #0:1 (copy)\n",
      "Output #0, mp4, to '/Users/Samuel/Documents/EPFL/S2/Deep Learning/Project/data/clean/videos/hateful/hate_video_29_snippet_6.mp4':\n",
      "  Metadata:\n",
      "    major_brand     : isom\n",
      "    minor_version   : 512\n",
      "    compatible_brands: isomiso2avc1mp41\n",
      "    encoder         : Lavf61.7.100\n",
      "  Stream #0:0(und): Video: h264 (High) (avc1 / 0x31637661), yuv420p(progressive), 854x480 [SAR 1280:1281 DAR 16:9], q=2-31, 175 kb/s, 60 fps, 60 tbr, 15360 tbn (default)\n",
      "      Metadata:\n",
      "        handler_name    : VideoHandler\n",
      "        vendor_id       : [0][0][0][0]\n",
      "  Stream #0:1(und): Audio: aac (LC) (mp4a / 0x6134706D), 48000 Hz, stereo, fltp, 95 kb/s (default)\n",
      "      Metadata:\n",
      "        handler_name    : SoundHandler\n",
      "        vendor_id       : [0][0][0][0]\n",
      "Press [q] to stop, [?] for help\n",
      "[out#0/mp4 @ 0x142e06d60] video:926KiB audio:407KiB subtitle:0KiB other streams:0KiB global headers:0KiB muxing overhead: 4.146466%\n",
      "frame= 2088 fps=0.0 q=-1.0 Lsize=    1388KiB time=00:00:33.00 bitrate= 344.5kbits/s speed=2.94e+03x    \n"
     ]
    }
   ],
   "source": [
    "# Test code\n",
    "\n",
    "video_paths = [\n",
    "    '/Users/Samuel/Documents/EPFL/S2/Deep Learning/Project/data/raw/videos/hateful/hate_video_29.mp4'\n",
    "]\n",
    "output_dir = '/Users/Samuel/Documents/EPFL/S2/Deep Learning/Project/data/clean/videos/hateful/'\n",
    "for video_path in video_paths:\n",
    "    process_video(video_path, annotations, output_dir)"
   ]
  },
  {
   "cell_type": "code",
   "execution_count": null,
   "id": "85454265",
   "metadata": {},
   "outputs": [],
   "source": []
  }
 ],
 "metadata": {
  "kernelspec": {
   "display_name": "deep-learning",
   "language": "python",
   "name": "python3"
  },
  "language_info": {
   "codemirror_mode": {
    "name": "ipython",
    "version": 3
   },
   "file_extension": ".py",
   "mimetype": "text/x-python",
   "name": "python",
   "nbconvert_exporter": "python",
   "pygments_lexer": "ipython3",
   "version": "3.13.2"
  }
 },
 "nbformat": 4,
 "nbformat_minor": 5
}
